<?xml version="1.0" encoding="UTF-8" standalone="no"?><svg xmlns="http://www.w3.org/2000/svg" xmlns:xlink= "http://www.w3.org/1999/xlink" width="600" height="390" aria-label="A chart." style="overflow: hidden;"><defs id="_ABSTRACT_RENDERER_ID_225"><clipPath id="_ABSTRACT_RENDERER_ID_226"><rect x="115" y="75" width="371" height="241"></rect></clipPath></defs><rect x="0" y="0" width="600" height="390" stroke="none" stroke-width="0" fill="#ffffff"></rect><g><text text-anchor="start" x="115" y="52.05" font-family="Arial" font-size="13" font-weight="bold" stroke="none" stroke-width="0" fill="#000000">Graph Title</text><rect x="115" y="41" width="371" height="13" stroke="none" stroke-width="0" fill-opacity="0" fill="#ffffff"></rect></g><g><rect x="499" y="75" width="88" height="13" stroke="none" stroke-width="0" fill-opacity="0" fill="#ffffff"></rect><g><rect x="499" y="75" width="88" height="13" stroke="none" stroke-width="0" fill-opacity="0" fill="#ffffff"></rect><g><text text-anchor="start" x="530" y="86.05" font-family="Arial" font-size="13" stroke="none" stroke-width="0" fill="#222222">Line1</text></g><path d="M499,81.5L525,81.5" stroke="#3366cc" stroke-width="3" fill-opacity="1" fill="none"></path><circle cx="512" cy="81.5" r="4.5" stroke="none" stroke-width="0" fill="#3366cc"></circle></g></g><g><rect x="115" y="75" width="371" height="241" stroke="none" stroke-width="0" fill-opacity="0" fill="#ffffff"></rect><g clip-path="url(https://www.rapidtables.com/tools/line-graph.html#_ABSTRACT_RENDERER_ID_226)"><g><rect x="115" y="315" width="371" height="1" stroke="none" stroke-width="0" fill="#cccccc"></rect><rect x="115" y="255" width="371" height="1" stroke="none" stroke-width="0" fill="#cccccc"></rect><rect x="115" y="195" width="371" height="1" stroke="none" stroke-width="0" fill="#cccccc"></rect><rect x="115" y="135" width="371" height="1" stroke="none" stroke-width="0" fill="#cccccc"></rect><rect x="115" y="75" width="371" height="1" stroke="none" stroke-width="0" fill="#cccccc"></rect><rect x="115" y="285" width="371" height="1" stroke="none" stroke-width="0" fill="#ebebeb"></rect><rect x="115" y="225" width="371" height="1" stroke="none" stroke-width="0" fill="#ebebeb"></rect><rect x="115" y="165" width="371" height="1" stroke="none" stroke-width="0" fill="#ebebeb"></rect><rect x="115" y="105" width="371" height="1" stroke="none" stroke-width="0" fill="#ebebeb"></rect></g><g><path d="M141.92857142857142,105.13999999999999L194.78571428571428,124.57999999999998L247.64285714285714,207.038L300.5,208.0508L353.35714285714283,204.2744L406.2142857142857,203.1938L459.07142857142856,181.22" stroke="#3366cc" stroke-width="3" fill-opacity="1" fill="none"></path></g></g><g><circle cx="141.92857142857142" cy="105.13999999999999" r="4.5" stroke="none" stroke-width="0" fill="#3366cc"></circle><circle cx="194.78571428571428" cy="124.57999999999998" r="4.5" stroke="none" stroke-width="0" fill="#3366cc"></circle><circle cx="247.64285714285714" cy="207.038" r="4.5" stroke="none" stroke-width="0" fill="#3366cc"></circle><circle cx="300.5" cy="208.0508" r="4.5" stroke="none" stroke-width="0" fill="#3366cc"></circle><circle cx="353.35714285714283" cy="204.2744" r="4.5" stroke="none" stroke-width="0" fill="#3366cc"></circle><circle cx="406.2142857142857" cy="203.1938" r="4.5" stroke="none" stroke-width="0" fill="#3366cc"></circle><circle cx="459.07142857142856" cy="181.22" r="4.5" stroke="none" stroke-width="0" fill="#3366cc"></circle></g><g><g><text text-anchor="middle" x="141.92857142857142" y="335.05" font-family="Arial" font-size="13" stroke="none" stroke-width="0" fill="#222222">2</text></g><g><text text-anchor="middle" x="194.78571428571428" y="335.05" font-family="Arial" font-size="13" stroke="none" stroke-width="0" fill="#222222">10</text></g><g><text text-anchor="middle" x="247.64285714285714" y="335.05" font-family="Arial" font-size="13" stroke="none" stroke-width="0" fill="#222222">40</text></g><g><text text-anchor="middle" x="300.5" y="335.05" font-family="Arial" font-size="13" stroke="none" stroke-width="0" fill="#222222">70</text></g><g><text text-anchor="middle" x="353.35714285714283" y="335.05" font-family="Arial" font-size="13" stroke="none" stroke-width="0" fill="#222222">90</text></g><g><text text-anchor="middle" x="406.2142857142857" y="335.05" font-family="Arial" font-size="13" stroke="none" stroke-width="0" fill="#222222">100</text></g><g><text text-anchor="middle" x="459.07142857142856" y="335.05" font-family="Arial" font-size="13" stroke="none" stroke-width="0" fill="#222222">150</text></g><g><text text-anchor="end" x="102" y="320.05" font-family="Arial" font-size="13" stroke="none" stroke-width="0" fill="#444444">0.2</text></g><g><text text-anchor="end" x="102" y="260.05" font-family="Arial" font-size="13" stroke="none" stroke-width="0" fill="#444444">0.3</text></g><g><text text-anchor="end" x="102" y="200.05" font-family="Arial" font-size="13" stroke="none" stroke-width="0" fill="#444444">0.4</text></g><g><text text-anchor="end" x="102" y="140.05" font-family="Arial" font-size="13" stroke="none" stroke-width="0" fill="#444444">0.5</text></g><g><text text-anchor="end" x="102" y="80.05" font-family="Arial" font-size="13" stroke="none" stroke-width="0" fill="#444444">0.6</text></g></g></g><g><g><text text-anchor="middle" x="300.5" y="368.05" font-family="Arial" font-size="13" font-style="italic" stroke="none" stroke-width="0" fill="#222222">Number of Threads</text><rect x="115" y="357" width="371" height="13" stroke="none" stroke-width="0" fill-opacity="0" fill="#ffffff"></rect></g><g><text text-anchor="middle" x="46.55" y="195.5" font-family="Arial" font-size="13" font-style="italic" transform="rotate(-90 46.55 195.5)" stroke="none" stroke-width="0" fill="#222222">Time of Execution</text><path d="M35.49999999999999,316L35.50000000000001,75L48.50000000000001,75L48.49999999999999,316Z" stroke="none" stroke-width="0" fill-opacity="0" fill="#ffffff"></path></g></g><g></g></svg>